<?xml version="1.0" encoding="utf-8"?>
<!-- Generator: Adobe Illustrator 16.0.0, SVG Export Plug-In . SVG Version: 6.00 Build 0)  -->
<!DOCTYPE svg PUBLIC "-//W3C//DTD SVG 1.1//EN" "http://www.w3.org/Graphics/SVG/1.1/DTD/svg11.dtd">
<svg version="1.1" id="Layer_1" xmlns="http://www.w3.org/2000/svg" xmlns:xlink="http://www.w3.org/1999/xlink" x="0px" y="0px"
	 width="210.143px" height="148.684px" viewBox="0 0 210.143 148.684" enable-background="new 0 0 210.143 148.684"
	 xml:space="preserve">
<path d="M164.783,84.14c-0.257,0.39-0.514,0.779-0.78,1.162C164.301,84.944,164.563,84.555,164.783,84.14z"/>
<path fill="#7C7C7C" d="M201.414,63.401c-6.969-10.751-17.291-18.555-29.356-22.321C166.058,17.041,144.535,0,119.357,0
	c-24.763,0-46.1,16.752-52.437,40.04c-4.101-0.976-8.303-1.468-12.563-1.468C24.384,38.572,0,62.957,0,92.929
	s24.384,54.357,54.357,54.357c6.85,0,13.435-1.287,19.515-3.634c7.049,3.257,14.794,5.031,22.75,5.031
	c11.373,0,21.936-3.517,30.673-9.511c8.467,5.217,18.307,8.114,28.491,8.114c29.972,0,54.357-24.384,54.357-54.357
	C210.143,82.419,207.125,72.208,201.414,63.401z M155.786,134.286c-6.397,0-12.616-1.51-18.22-4.268
	c-3.915-1.927-7.533-4.458-10.688-7.539c-1.48,1.589-3.084,3.06-4.795,4.401c-1.729,1.355-3.562,2.579-5.495,3.649
	c-5.923,3.28-12.729,5.154-19.965,5.154c-2.64,0-5.249-0.264-7.798-0.757c-2.656-0.514-5.243-1.292-7.731-2.305
	c-2.352-0.957-4.611-2.127-6.751-3.497c-4.521,2.502-9.548,4.173-14.862,4.835c-1.682,0.21-3.39,0.327-5.123,0.327
	C31.553,134.286,13,115.733,13,92.929c0-22.805,18.553-41.357,41.357-41.357c5.208,0,10.303,0.967,15.143,2.874l7.798,3.072
	l1.034-8.318C80.898,28.562,98.535,13,119.357,13c20.236,0,37.378,14.461,40.76,34.385c0.396,2.335,0.598,4.681,0.598,6.972
	c0,3.256-0.391,6.528-1.162,9.726c-1.021,4.232-2.7,8.182-4.897,11.768c-0.664,1.085-1.38,2.132-2.138,3.146
	c-0.202,0.638-0.313,1.317-0.313,2.023c0,3.688,2.99,6.677,6.677,6.677c2.058,0,3.896-0.932,5.122-2.395
	c0.267-0.383,0.523-0.772,0.78-1.162c3.371-5.112,5.92-10.835,7.408-17.01c0.24-0.999,0.448-2.003,0.633-3.011
	c0.062-0.338,0.105-0.678,0.161-1.017c0.109-0.674,0.218-1.348,0.302-2.024c0.051-0.401,0.085-0.804,0.126-1.206
	c0.063-0.618,0.124-1.235,0.166-1.854c0.029-0.428,0.046-0.855,0.064-1.283c0.017-0.364,0.047-0.728,0.056-1.092
	c6.797,3.256,12.6,8.341,16.807,14.831c4.342,6.696,6.637,14.461,6.637,22.456C197.143,115.733,178.59,134.286,155.786,134.286z"/>
<circle fill="#7C7C7C" cx="143.697" cy="95.845" r="10.08"/>
<circle fill="#4692AD" cx="125.697" cy="105.845" r="7.242"/>
<circle fill="#4692AD" cx="107.697" cy="108.845" r="6.886"/>
<circle fill="#4692AD" cx="91.798" cy="104.135" r="5.29"/>
<circle fill="#4692AD" cx="77.697" cy="100.845" r="4.477"/>
<path fill="#4692AD" d="M63.697,94.868c-2.193,0-3.977,1.784-3.977,3.977c0,2.193,1.784,3.978,3.977,3.978
	c2.193,0,3.978-1.784,3.978-3.978C67.675,96.652,65.89,94.868,63.697,94.868z"/>
<path fill="#4692AD" d="M49.697,96.368c-1.917,0-3.477,1.56-3.477,3.477s1.56,3.478,3.477,3.478c1.918,0,3.478-1.56,3.478-3.478
	S51.615,96.368,49.697,96.368z"/>
<circle fill="#4692AD" cx="36.697" cy="105.845" r="2.977"/>
<g>
</g>
<g>
</g>
<g>
</g>
<g>
</g>
<g>
</g>
<g>
</g>
</svg>
